<?xml version="1.0" encoding="iso-8859-1"?>
<!-- Generator: Adobe Illustrator 18.1.1, SVG Export Plug-In . SVG Version: 6.00 Build 0)  -->
<svg version="1.1" id="Capa_1" xmlns="http://www.w3.org/2000/svg" xmlns:xlink="http://www.w3.org/1999/xlink" x="0px" y="0px"
	 viewBox="0 0 27.495 27.495" style="enable-background:new 0 0 27.495 27.495;" xml:space="preserve">
<g>
	<g id="c123_arrow">
		<path d="M13.748,0C6.156,0,0,6.155,0,13.747s6.156,13.748,13.748,13.748s13.746-6.156,13.746-13.748S21.34,0,13.748,0z
			 M13.75,4.86c0.111,0,0.22,0.056,0.292,0.143l7.972,12.483c0.088,0.112,0.108,0.268,0.042,0.399
			c-0.062,0.128-0.194,0.21-0.337,0.21H5.777c-0.145,0-0.277-0.082-0.338-0.21l-0.04-0.166c0-0.082,0.031-0.166,0.085-0.233
			l7.969-12.483C13.525,4.916,13.635,4.86,13.75,4.86z"/>
	</g>
	<g id="Capa_1_196_">
	</g>
</g>
<g>
</g>
<g>
</g>
<g>
</g>
<g>
</g>
<g>
</g>
<g>
</g>
<g>
</g>
<g>
</g>
<g>
</g>
<g>
</g>
<g>
</g>
<g>
</g>
<g>
</g>
<g>
</g>
<g>
</g>
</svg>
